<svg width="124mm" height="111mm" version="1.1" viewBox="0 0 124 111" xmlns="http://www.w3.org/2000/svg"><path id="a" d="m75.7 2.2e-4c-9.07-0.037-18.2 4.51-23.6 13.3-4.44-0.402-9.19 0.651-13.3 3.15-6.28-1.68-13-1.25-19.5-1.25h-19.3v66h19.3c9.3 0 14.6 0.0958 17.6 0.887 2.97 0.791 3.93 1.86 5.96 5.37h4.33c2.03-3.51 2.99-4.58 5.96-5.37 2.97-0.791 8.27-0.887 17.6-0.887h19.3v-39.4c2.21-0.965 3.75-3.17 3.75-5.73 0-3.45-2.8-6.25-6.25-6.25s-6.25 2.8-6.25 6.25c0 2.51 1.54 4.73 3.75 5.72v34.4h-14.3c-9.31 0-14.7-0.0522-18.9 1.05-1.68 0.448-3.09 1.17-4.33 2.12v-30.1c2.21-0.965 3.75-3.17 3.75-5.73 0-3.45-2.8-6.25-6.25-6.25-3.45 0-6.25 2.8-6.25 6.25 0 2.51 1.54 4.73 3.75 5.72v30.1c-1.24-0.952-2.65-1.68-4.33-2.13-4.16-1.11-9.55-1.05-18.9-1.05h-14.3v-56h14.3c6.73 0 11.3 0.0532 14.5 0.38-1.47 1.67-2.74 3.61-3.71 5.85-7.32 0.294-15 6.12-15 15.6 7e-5 8.62 6.92 15.7 15.5 15.7h8.74v-6.75c-1.87-1.45-3.19-3.59-3.6-5.93-1.14-5.28 3.48-11 8.92-11 2.57-0.0997 5.15 0.935 6.97 2.73 2.08 1.89 3.06 4.85 2.72 7.64-0.25 2.51-1.54 5.05-3.66 6.59v6.71h31.2v-14.3c-1.83-1.43-3.15-3.52-3.58-5.81-1.23-5.36 3.42-11.1 8.89-11.1 2.83-0.104 5.65 1.15 7.5 3.29 3.58 3.8 2.75 10.6-1.46 13.7v14.2h8.62c12.1 0 21.9-10.1 21.9-22.3 3e-5 -14.5-12.8-23.6-24.7-22-5.37-8.85-14.4-13.5-23.5-13.5z" fill="#3c8f49"/><path d="m44.7 93 7 17.3h1.98l7.05-17.3h-3.04l-4.97 12.6-4.92-12.6zm18.5 0v17.3h2.84v-7.35h0.733l5.92 7.35h3.59l-6.08-7.37c6.92-0.45 6.47-9.94-0.522-9.94zm15.2 0v17.3h11.6v-2.6h-8.81v-5h7.96v-2.5h-7.96v-4.63h8.68v-2.6h-8.68zm-78.4 0.297v17h1.81v-13.5l9.97 13.5h1.29v-17h-1.83v13.5l-9.94-13.5zm66.1 2.18h3.51c3.63 0 3.82 5.14-0.0248 5.14h-3.49zm-49.9 9.05c0 6.16 7.4 7.95 9.97 3.8v1.99h1.73v-11.6h-1.73v1.98c-2.6-4.12-9.97-2.36-9.97 3.86zm14.5 0c0 6.16 7.4 7.95 9.97 3.8v1.99h1.73v-11.6h-1.73v1.98c-2.6-4.12-9.97-2.36-9.97 3.86zm-4.4-0.0248c0 6.11-8.29 5.65-8.29 0 0-5.73 8.29-6.06 8.29 0zm14.5 0c0 6.11-8.29 5.65-8.29 0 0-5.74 8.29-6.05 8.29 0z" fill="#3c8f49"/></svg>
