<?xml version="1.0" encoding="UTF-8"?>
<!-- Created with Inkscape (http://www.inkscape.org/) -->
<svg width="31.75mm" height="31.75mm" version="1.1" viewBox="0 0 31.75 31.75" xml:space="preserve" xmlns="http://www.w3.org/2000/svg"><g transform="matrix(2.2126 0 0 2.2126 -21.197 -16.012)" fill="none" stroke="#666"><g stroke-width=".53093"><path d="m12.116 16.496c-2.1789-0.62414-3.5049-3.6328-0.57599-5.4196 0.10559-3.1267 3.8249-2.5311 3.7963-0.18327" stroke-linecap="round"/><path d="m14.529 9.2927c1.774-2.8834 6.7064-2.3404 7.045 2.0393"/><path d="m23.628 14.786c0.2345-2.5013-0.86394-3.6696-3.2953-3.505" stroke-linecap="round"/><g stroke-linejoin="round"><path d="m13.853 12.324v3.3323l-2.4623 4.1473c-0.32826 0.56857 0.12905 1.5176 0.68491 1.5176h5.0912c0.55586 0 1.0132-0.94903 0.68492-1.5176l-2.7215-4.1473v-3.3323z"/><path d="m14.047 20.284h-1.7701l2.1496-3.6275"/><path d="m15.371 18.989h0.53093"/><path d="m16.106 19.996h0.53093"/></g></g><g transform="matrix(1.0033 0 0 1.0033 -.031865 -.071758)" stroke-width=".52917"><path d="m18.55 15.419c-0.34696 0-0.62632 0.27936-0.62632 0.62632v4.1548c0 0.62163 0.50078 1.1219 1.1224 1.1219h2.1192c0.62163 0 1.1224-0.50027 1.1224-1.1219v-3.4997l0.66142-0.68158c0.28707-0.28707-0.0093-0.59986-0.22676-0.59986z"/><path d="m21.238 16.662v3.5614h-1.0148" stroke-linejoin="round"/><g stroke-linejoin="round"><path d="m18.643 19.979h0.52917"/><path d="m18.643 17.925h0.52917"/><path d="m18.643 16.898h0.79375"/><path d="m18.643 18.952h0.79375"/></g></g></g></svg>
