<?xml version="1.0" encoding="UTF-8" standalone="no"?>
<svg
   id="Livello_1"
   version="1.1"
   viewBox="120 30 550 550"
   sodipodi:docname="catalogue.svg"
   inkscape:version="1.4.2 (ebf0e940d0, 2025-05-08)"
   xmlns:inkscape="http://www.inkscape.org/namespaces/inkscape"
   xmlns:sodipodi="http://sodipodi.sourceforge.net/DTD/sodipodi-0.dtd"
   xmlns="http://www.w3.org/2000/svg"
   xmlns:svg="http://www.w3.org/2000/svg">
  <sodipodi:namedview
     id="namedview6"
     pagecolor="#ffffff"
     bordercolor="#000000"
     borderopacity="0.25"
     inkscape:showpageshadow="2"
     inkscape:pageopacity="0.0"
     inkscape:pagecheckerboard="true"
     inkscape:deskcolor="#d1d1d1"
     inkscape:zoom="1.3381818"
     inkscape:cx="386.71875"
     inkscape:cy="267.90082"
     inkscape:window-width="2560"
     inkscape:window-height="1395"
     inkscape:window-x="0"
     inkscape:window-y="0"
     inkscape:window-maximized="0"
     inkscape:current-layer="g4" />
  <!-- Generator: Adobe Illustrator 29.8.1, SVG Export Plug-In . SVG Version: 2.1.1 Build 2)  -->
  <defs
     id="defs1">
    <style
       id="style1">
      .st0, .st1 {
        fill: none;
        stroke-width: 20px;
      }

      .st0, .st1, .st2 {
        stroke-miterlimit: 20;
      }

      .st0, .st2, .st3, .st4 {
        stroke: #0f4e8a;
      }

      .st1 {
        stroke: #0f4e8a;
      }

      .st4 {
        fill: #0f4e8a;
        stroke-width: 7px;
      }

      .st2, .st3 {
        fill:none;
        stroke-width: 20px;
      }

      .st3 {
        stroke-miterlimit: 200;
      }
    </style>
  </defs>
  <g
     id="g4">
    <path
       id="path1"
       class="st2"
       d="M 567.93555 112.47266 L 585.09961 130 C 588.39961 133.3 590.20039 137.7 590.40039 142.5 L 592.30078 235.19922 C 592.70078 249.59922 587.39961 262.89961 577.59961 272.59961 L 533 316.09961 L 362.83203 482.21875 L 506.09961 541.19922 C 518.19961 546.09922 531.50039 541.4 535.90039 530.5 L 633.09961 293.80078 L 653.30078 244.69922 C 657.60078 233.79922 657.29922 221.50078 652.19922 210.30078 L 619.19922 138.30078 C 617.69922 134.60078 614.7 131.79922 611 130.19922 L 567.93555 112.47266 z " />
    <path
       id="path2"
       class="st0"
       d="M 526.78906 322.16211 L 495.88867 352.32812 C 497.73184 353.55416 499.47828 354.97828 501.09961 356.59961 C 514.39961 369.89961 514.39961 391.50039 501.09961 404.90039 C 487.79961 418.30039 465.99922 418.20039 452.69922 404.90039 C 450.89244 403.09361 449.33151 401.13231 448.01562 399.06055 L 416.92969 429.4082 L 431.5 443.90039 C 432.7 445.10039 434.70039 445.10039 435.90039 443.90039 L 445.59961 434.19922 C 446.49961 433.29922 447.89961 433.09922 449.09961 433.69922 C 452.09961 435.29922 455.20039 436.49961 458.40039 437.59961 C 459.60039 437.99961 460.5 439.20039 460.5 440.40039 L 460.5 454.09961 C 460.5 455.89961 461.89922 457.30078 463.69922 457.30078 L 489.69922 457.30078 C 491.49922 457.30078 492.90039 455.90078 492.90039 454.30078 L 492.90039 440.59961 C 492.90039 439.39961 493.8 438.10078 495 437.80078 C 498.2 436.70078 501.30078 435.50039 504.30078 433.90039 C 505.50078 433.40039 506.80078 433.50039 507.80078 434.40039 L 517.5 444.09961 C 518.7 445.29961 520.70039 445.29961 521.90039 444.09961 L 522 444 L 540.40039 425.69922 C 541.60039 424.49922 541.60039 422.50078 540.40039 421.30078 L 530.69922 411.59961 C 529.79922 410.69961 529.59922 409.29961 530.19922 408.09961 C 531.79922 405.09961 532.99961 402.00078 534.09961 398.80078 C 534.49961 397.60078 535.70039 396.69922 536.90039 396.69922 L 548.30078 396.69922 C 551.30078 396.69922 553.69922 394.20078 553.69922 391.30078 L 553.69922 367.80078 C 553.69922 366.00078 552.3 364.59961 550.5 364.59961 L 536.80078 364.59961 C 535.60078 364.59961 534.3 363.7 534 362.5 C 532.9 359.3 531.69961 356.19922 530.09961 353.19922 C 529.59961 351.99922 529.69961 350.69922 530.59961 349.69922 L 540.30078 340 C 541.50078 338.8 541.50078 336.79961 540.30078 335.59961 L 526.78906 322.16211 z " />
    <path
       class="st2"
       d="M 355.4,134.1 400,90.6 c 9.8,-9.7 23.3,-14.6 37.7,-13.9 l 92.5,4.2 c 4.7,0.2 9.1,2.1 12.3,5.6 l 42.6,43.5 c 3.3,3.3 5.1,7.7 5.3,12.5 l 1.9,92.7 c 0.4,14.4 -4.9,27.7 -14.7,37.4 L 533,316.1 318.7,525.3 c -9.8,9.7 -26.3,8.6 -37,-2.3 L 142.5,380.5 c -10.5,-10.9 -11.2,-27.4 -1.4,-37 L 355.4,134.3 Z"
       id="path3" />
    <circle
       class="st3"
       cx="59.088501"
       cy="526.42175"
       r="31.200001"
       transform="rotate(-65)"
       id="circle3" />
  </g>
  <g
     id="g6">
    <path
       class="st4"
       d="M280.7,373.2l24.8-71.8,6.9,7.3-21.4,59.9.2.2,60.8-18.7,6.9,7.3-72.8,21.5-5.4-5.7h0Z"
       id="path4" />
    <path
       class="st4"
       d="M369.8,355l-43.5-104.3,7.2-6.8,43.4,104.4-7.1,6.7Z"
       id="path5" />
    <path
       class="st4"
       d="M433.9,237.8l-24.9,71.7-6.9-7.3,21.7-60.2-.2-.2-61.2,19-6.9-7.3,72.8-21.6,5.6,5.9Z"
       id="path6" />
  </g>
</svg>
