<?xml version="1.0" encoding="UTF-8" standalone="no"?>
<svg
   width="77.4"
   height="77.3"
   viewBox="0 0 77.4 77.3"
   version="1.1"
   id="svg1"
   sodipodi:docname="search.svg"
   inkscape:version="1.4.2 (ebf0e940d0, 2025-05-08)"
   xmlns:inkscape="http://www.inkscape.org/namespaces/inkscape"
   xmlns:sodipodi="http://sodipodi.sourceforge.net/DTD/sodipodi-0.dtd"
   xmlns="http://www.w3.org/2000/svg"
   xmlns:svg="http://www.w3.org/2000/svg">
  <sodipodi:namedview
     id="namedview1"
     pagecolor="#ffffff"
     bordercolor="#000000"
     borderopacity="0.25"
     inkscape:showpageshadow="2"
     inkscape:pageopacity="0.0"
     inkscape:pagecheckerboard="0"
     inkscape:deskcolor="#d1d1d1"
     inkscape:zoom="6.7326076"
     inkscape:cx="49.832104"
     inkscape:cy="41.514375"
     inkscape:window-width="2560"
     inkscape:window-height="1395"
     inkscape:window-x="0"
     inkscape:window-y="0"
     inkscape:window-maximized="0"
     inkscape:current-layer="a899702d-8bb5-4083-820b-aed20e394188" />
  <defs
     id="defs1">
    <style
       id="style1">      .b701f402-d76b-4848-afd5-c49fb6a71f6f {        fill: #174584;      }      .a7cb8ecd-f314-4b24-87d8-f90e2e8f5210 {        fill: #fff;      }    </style>
  </defs>
  <g
     id="e8896e64-54fd-4843-99cb-2b2bd0d57add"
     data-name="Livello 2">
    <g
       id="a899702d-8bb5-4083-820b-aed20e394188"
       data-name="Livello 1">
      <path
         id="path1"
         class="b701f402-d76b-4848-afd5-c49fb6a71f6f"
         d="M 30.392578 0.083984375 A 31 31 0 1 0 49.279297 56.169922 L 69 75.869141 A 5 5 0 0 0 76 75.869141 A 5 5 0 0 0 76 68.869141 L 56.169922 49.279297 A 31 31 0 0 0 30.392578 0.083984375 z M 31.080078 3.4804688 A 27.200001 27.200001 0 0 1 58.279297 30.679688 A 27.200001 27.200001 0 0 1 31.080078 57.880859 A 27.200001 27.200001 0 0 1 3.8808594 30.679688 A 27.200001 27.200001 0 0 1 31.080078 3.4804688 z " />
    </g>
  </g>
</svg>
